# xmcd
#
# Track frame offsets: 
#        150
#        13327
#        22580
#        34845
#        45615
#        57030
#        67790
#        76530
#        84342
#        95200
#        105245
#        114685
#        124942
#        138497
#        150107
#        161007
#        172075
#        185365
#        194650
#        206960
#        217657
#        229182
#        240067
#        248740
#        256570
#        267492
#        277595
#        287052
#        297520
#        311175
#        322792
#        333640
#
# Disc length: 4591 seconds
#
# Revision: 2
# Processed by: cddbd v1.5.2PL0 Copyright (c) Steve Scherf et al.
# Submitted via: ExactAudioCopy v0.99pb4
#
DISCID=b111ed20
DTITLE=The Shadows - The Shadows' Greatest Hits
DYEAR=1963
DGENRE=Pop-Folk
TTITLE0=Apache (Mono)
TTITLE1=Man Of Mystery (Mono)
TTITLE2=The Stranger (Mono)
TTITLE3=F.B.I. (Mono)
TTITLE4=Midnight (Mono)
TTITLE5=The Frightened City (Mono)
TTITLE6=Kon-Tiki (Mono)
TTITLE7=36-24-36 (Mono)
TTITLE8=The Savage (Mono)
TTITLE9=Peace Pipe (Mono)
TTITLE10=Wonderful Land (Mono)
TTITLE11=Stars Fell On Stockton (Mono)
TTITLE12=Guitar Tango (Mono)
TTITLE13=The Boys (Mono)
TTITLE14=Dance On! (Mono)
TTITLE15=Quatermassters Stores (Mono)
TTITLE16=Apache (1974 Stereo Re-Recording)
TTITLE17=Man Of Mystery (1974 Stereo Re-Recording)
TTITLE18=The Stranger (1974 Stereo Re-Recording)
TTITLE19=F.B.I. (1974 Stereo Re-Recording)
TTITLE20=Midnight (1974 Stereo Re-Recording)
TTITLE21=The Frightened City (1974 Stereo Re-Recording)
TTITLE22=Kon-Tiki (1974 Stereo Re-Recording)
TTITLE23=36-24-36 (1974 Stereo Re-Recording)
TTITLE24=The Savage (1974 Stereo Re-Recording)
TTITLE25=Peace Pipe (1974 Stereo Re-Recording)
TTITLE26=Wonderful Land (1974 Stereo Re-Recording)
TTITLE27=Stars Fell On Stockton (1974 Stereo Re-Recording)
TTITLE28=Guitar Tango (1974 Stereo Re-Recording)
TTITLE29=The Boys (1974 Stereo Re-Recording)
TTITLE30=Dance On! (1974 Stereo Re-Recording)
TTITLE31=Quatermassters Stores (1974 Stereo Re-Recording)
EXTD=
EXTT0=
EXTT1=
EXTT2=
EXTT3=
EXTT4=
EXTT5=
EXTT6=
EXTT7=
EXTT8=
EXTT9=
EXTT10=
EXTT11=
EXTT12=
EXTT13=
EXTT14=
EXTT15=
EXTT16=
EXTT17=
EXTT18=
EXTT19=
EXTT20=
EXTT21=
EXTT22=
EXTT23=
EXTT24=
EXTT25=
EXTT26=
EXTT27=
EXTT28=
EXTT29=
EXTT30=
EXTT31=
PLAYORDER=
